<svg width="7" height="13" viewBox="0 0 7 13" fill="none" xmlns="http://www.w3.org/2000/svg">
    <path fill-rule="evenodd" clip-rule="evenodd" d="M2.57866 12.25C1.65532 12.25 0.908366 11.5022 0.908366 10.5796C0.908366 9.65757 1.65532 8.90911 2.57866 8.90911C3.50167 8.90911 4.24927 9.65757 4.24927 10.5796C4.24927 11.5022 3.50167 12.25 2.57866 12.25ZM3.48394 0C1.54227 0 0 1.63678 0 3.65569C0 6.40791 2.95078 9.25191 2.95078 9.25191C3.34777 9.62783 3.59437 9.65847 4.01646 9.25191C4.01646 9.25191 7 6.40791 7 3.65569C7 1.63678 5.42544 0 3.48394 0Z" fill="#F55A5A"/>
</svg>
