<svg width="24" height="29" viewBox="0 0 24 29" fill="none" xmlns="http://www.w3.org/2000/svg">
    <path fill-rule="evenodd" clip-rule="evenodd" d="M18.8649 24.2C18.7357 24.0799 18.6376 23.9553 18.6044 23.84C18.4739 23.383 18.646 22.0548 18.9048 21.6401C19.1628 21.2239 18.877 19.975 18.7926 19.7683C18.7058 19.5604 18.6767 19.2906 18.3805 19.3724C18.0826 19.4558 17.4132 19.4247 16.8078 19.3002C16.2008 19.1768 15.6723 18.5921 15.5514 17.9328C15.416 17.1937 15.416 16.4757 15.5888 16.0255C15.782 15.5194 16.2577 15.3278 16.6932 15.0892C16.8938 14.9798 17.8644 14.825 17.8279 14.358C17.6023 13.9278 15.5418 14.4171 15.4592 13.7486C15.3756 13.0789 15.3461 12.7428 15.6075 12.204C15.8817 11.6421 15.5664 11.7171 15.4907 11.0358C15.4804 10.9388 15.6952 10.6882 15.7122 10.6C16.4231 11.0043 17.0908 11.4876 17.6899 12.0631C19.5667 13.8667 20.6 16.2645 20.6 18.8152C20.6 20.7669 19.9905 22.6255 18.8649 24.2ZM15.4437 23.8971C15.034 24.5476 15.1325 25.0268 14.1978 25.5241C13.6772 25.8014 13.3068 25.88 13.0314 26.6248C12.7548 27.368 12.2962 27.3418 11.1513 27.9456C10.0047 28.5509 9.54928 27.9456 9.45589 27.4813C9.36289 27.017 9.64545 25.9203 9.64545 25.9203C9.64545 25.9203 9.75752 25.5927 8.94521 25.2227C6.89098 24.2872 8.66344 21.0029 8.66344 21.0029C8.19926 20.4596 7.02053 19.394 5.37484 19.045C3.80148 18.7121 3.3528 17.7887 2.8 16.867C3.20457 15.1606 4.05464 13.5924 5.30967 12.3188C7.10479 10.4979 9.49086 9.4 12.0315 9.4C12.0315 9.4 12.8883 9.4 13.6971 9.6124C12.9575 10.4265 12.1301 11.2495 11.5153 11.4764C10.4085 11.8875 9.89543 12.561 9.89066 13.2784C9.88827 13.65 10.6577 14.3235 10.6577 15.1755C10.6577 16.6236 9.59498 16.657 9.47099 16.0468C9.19121 14.6628 8.12097 15.0203 6.83931 15.1589C5.55567 15.2988 4.77793 16.8102 5.60216 17.4147C6.42799 18.0193 6.38547 17.2237 6.703 16.9968C7.01895 16.7695 7.24229 16.6796 7.48233 16.9968C7.72038 17.314 8.23662 17.4865 8.18694 18.1374C8.14363 18.7879 8.00453 19.3448 8.87685 19.3448C9.74798 19.3448 9.77819 19.5391 10.331 19.8176C10.8782 20.0965 11.3965 20.0441 11.8531 20.1376C12.3117 20.2299 12.9126 21.1279 12.9126 21.1279C14.2125 21.5539 14.6401 21.728 14.999 22.0907C15.3567 22.4534 15.8582 23.2462 15.4437 23.8971ZM11.9986 0H11.9954H11.9922C7.23149 0 3.13019 2.7812 1.19038 6.8C0.430136 8.3748 8.94955e-08 10.1344 8.94955e-08 12C-0.000800164 18.6264 5.3653 24 11.9938 24H11.997H12.0002C18.6263 24 24.0008 18.6264 24 12.0016C24.0008 5.314 18.5467 0 11.9986 0Z" fill="white"/>
</svg>
